<svg width="109" height="11" viewBox="0 0 109 11" fill="none" xmlns="http://www.w3.org/2000/svg">
<g clip-path="url(#clip0_18_397)">
<path d="M0 5.25272C0 3.74916 0.502209 2.49793 1.50651 1.49866C2.52036 0.499634 3.81169 0 5.38036 0C6.09775 0 6.79601 0.123713 7.47514 0.371139C8.15428 0.609002 8.73778 0.965919 9.22552 1.44164L8.06343 3.32579C7.71902 3.02122 7.31256 2.7738 6.84383 2.58351C6.38465 2.38365 5.93517 2.28373 5.49512 2.28373C4.53864 2.28373 3.81647 2.56916 3.32861 3.14016C2.84074 3.70159 2.59687 4.38673 2.59687 5.19558C2.59687 6.02345 2.84553 6.74194 3.34295 7.35094C3.84994 7.95994 4.56733 8.26451 5.49512 8.26451C6.47073 8.26451 7.37939 7.84579 8.22122 7.00837L9.51255 8.83538C8.40305 9.97724 7.02566 10.5482 5.38048 10.5482C3.75443 10.5482 2.44876 10.0534 1.46359 9.0638C0.487864 8.06477 0 6.79441 0 5.25272Z" fill="#474747"/>
<path d="M9.66846 10.3772L13.155 0.171387H15.7949L19.2814 10.3772H16.6988L16.0675 8.23604H12.868L12.251 10.3772H9.66846ZM13.4562 6.23775H15.4793L14.9054 4.25368L14.4892 2.49803H14.4605C14.3075 3.24031 14.1688 3.82552 14.0445 4.25368L13.4562 6.23775Z" fill="#474747"/>
<path d="M19.5459 5.25272C19.5459 3.74916 20.0481 2.49793 21.0524 1.49866C22.0663 0.499634 23.3576 0 24.9263 0C25.6436 0 26.3419 0.123713 27.021 0.371139C27.7002 0.609002 28.2835 0.965919 28.7714 1.44164L27.6093 3.32579C27.2649 3.02122 26.8585 2.7738 26.3897 2.58351C25.9305 2.38365 25.4811 2.28373 25.041 2.28373C24.0845 2.28373 23.3624 2.56916 22.8745 3.14016C22.3868 3.70159 22.1428 4.38673 22.1428 5.19558C22.1428 6.02345 22.3915 6.74194 22.8888 7.35094C23.3958 7.95994 24.1132 8.26451 25.041 8.26451C26.0167 8.26451 26.9254 7.84579 27.7671 7.00837L29.0583 8.83538C27.9488 9.97724 26.5714 10.5482 24.9263 10.5482C23.3002 10.5482 21.9945 10.0534 21.0094 9.0638C20.0338 8.06477 19.5459 6.79441 19.5459 5.25272Z" fill="#474747"/>
<path d="M32.5429 10.3772V2.31252H29.4294V0.171387H38.1672V2.31252H35.0538V10.3773H32.5429V10.3772Z" fill="#474747"/>
<path d="M39.2979 6.62323V0.171387H41.8088V6.62323C41.8088 7.14665 41.9666 7.55102 42.2822 7.83645C42.6075 8.12189 43.0426 8.26473 43.5878 8.26473C44.1331 8.26473 44.5634 8.12201 44.8792 7.83645C45.2043 7.55102 45.3669 7.14653 45.3669 6.62323V0.171387H47.8777V6.62323C47.8777 7.7841 47.4856 8.73101 46.7013 9.46373C45.9169 10.1869 44.884 10.5486 43.6022 10.5486C42.3109 10.5486 41.2683 10.187 40.4744 9.46373C39.6901 8.73089 39.2979 7.7841 39.2979 6.62323Z" fill="#474747"/>
<path d="M49.2183 9.09249L50.5382 7.194C50.8634 7.47944 51.2508 7.72686 51.7004 7.93628C52.1499 8.1457 52.5851 8.25028 53.0059 8.25028C53.3408 8.25028 53.599 8.18371 53.7808 8.05043C53.9721 7.91715 54.0677 7.74587 54.0677 7.53657C54.0677 7.31771 53.953 7.11786 53.7233 6.93713C53.5034 6.74684 53.226 6.58978 52.8912 6.46607C52.5564 6.34235 52.1929 6.18529 51.8008 5.995C51.4086 5.79515 51.0451 5.58585 50.7104 5.36699C50.3756 5.14813 50.0935 4.84835 49.8638 4.46777C49.6438 4.07763 49.5339 3.63035 49.5339 3.12606C49.5339 2.19349 49.8781 1.44177 50.5668 0.870774C51.2651 0.290217 52.1594 0 53.2499 0C54.522 0 55.5934 0.385362 56.4638 1.15621L55.4021 3.19742C55.1055 2.94043 54.7516 2.72635 54.3403 2.55506C53.9291 2.38378 53.5273 2.2982 53.1352 2.2982C52.7716 2.2982 52.4991 2.36477 52.3173 2.49805C52.1355 2.63133 52.0447 2.80727 52.0447 3.02613C52.0447 3.24499 52.1546 3.44484 52.3747 3.62569C52.6043 3.80654 52.8864 3.9587 53.2212 4.08241C53.556 4.19656 53.9195 4.34884 54.3116 4.53913C54.7038 4.71998 55.0672 4.91971 55.4021 5.13869C55.7368 5.34799 56.0142 5.64777 56.2342 6.03791C56.4638 6.41849 56.5785 6.86099 56.5785 7.36541C56.5785 8.26941 56.2534 9.02591 55.6029 9.63491C54.962 10.2439 54.0725 10.5485 52.9342 10.5485C52.2456 10.5485 51.5713 10.4248 50.9113 10.1773C50.2608 9.92979 49.6964 9.56821 49.2183 9.09249Z" fill="#474747"/>
<path d="M70.9802 10.3772V0.171387H73.4911V10.3772H70.9802Z" fill="#474747"/>
<path d="M74.9429 9.09249L76.2629 7.194C76.5882 7.47944 76.9755 7.72686 77.4251 7.93628C77.8746 8.1457 78.3099 8.25028 78.7306 8.25028C79.0655 8.25028 79.3237 8.18371 79.5054 8.05043C79.6968 7.91715 79.7924 7.74587 79.7924 7.53657C79.7924 7.31771 79.6777 7.11786 79.448 6.93713C79.2281 6.74684 78.9507 6.58978 78.6159 6.46607C78.2812 6.34235 77.9176 6.18529 77.5255 5.995C77.1333 5.79515 76.7699 5.58585 76.435 5.36699C76.1003 5.14813 75.8182 4.84835 75.5885 4.46777C75.3686 4.07763 75.2586 3.63035 75.2586 3.12606C75.2586 2.19349 75.6029 1.44177 76.2916 0.870774C76.9898 0.290217 77.8842 0 78.9746 0C80.2467 0 81.3181 0.385362 82.1885 1.15621L81.1267 3.19742C80.8302 2.94043 80.4764 2.72635 80.065 2.55506C79.6538 2.38378 79.252 2.2982 78.8598 2.2982C78.4963 2.2982 78.2238 2.36477 78.042 2.49805C77.8602 2.63133 77.7694 2.80727 77.7694 3.02613C77.7694 3.24499 77.8794 3.44484 78.0995 3.62569C78.329 3.80654 78.6111 3.9587 78.9459 4.08241C79.2807 4.19656 79.6442 4.34884 80.0363 4.53913C80.4284 4.71998 80.792 4.91971 81.1267 5.13869C81.4615 5.34799 81.7389 5.64777 81.959 6.03791C82.1885 6.41849 82.3032 6.86099 82.3032 7.36541C82.3032 8.26941 81.9781 9.02591 81.3276 9.63491C80.6868 10.2439 79.7972 10.5485 78.6589 10.5485C77.9702 10.5485 77.2959 10.4248 76.636 10.1773C75.9855 9.92979 75.4212 9.56821 74.9429 9.09249Z" fill="#474747"/>
<path d="M83.8987 10.3772V0.171387H86.4095V10.3772H83.8987Z" fill="#474747"/>
<path d="M88.0049 5.20993C88.0049 3.7255 88.5071 2.48836 89.5114 1.49878C90.5157 0.499634 91.8022 0 93.3709 0C94.9396 0 96.2261 0.499634 97.2304 1.49878C98.2347 2.48849 98.7369 3.7255 98.7369 5.20993C98.7369 6.7325 98.2347 8.00286 97.2304 9.02101C96.2261 10.0392 94.9396 10.5484 93.3709 10.5484C91.8022 10.5484 90.5157 10.0393 89.5114 9.02101C88.5071 8.00273 88.0049 6.7325 88.0049 5.20993ZM90.6018 5.20993C90.6018 6.08536 90.8601 6.81342 91.3765 7.39385C91.9026 7.97429 92.5674 8.26451 93.3709 8.26451C94.1744 8.26451 94.8344 7.97429 95.3509 7.39385C95.8769 6.81342 96.14 6.08536 96.14 5.20993C96.14 4.37251 95.8769 3.67792 95.3509 3.12593C94.8344 2.5645 94.1744 2.28373 93.3709 2.28373C92.5674 2.28373 91.9026 2.5645 91.3765 3.12593C90.8601 3.67792 90.6018 4.37251 90.6018 5.20993Z" fill="#474747"/>
<path d="M100.334 10.3772V0.171387H102.874L105.715 4.93882C105.829 5.13867 105.958 5.3861 106.102 5.6811C106.245 5.96653 106.36 6.20452 106.446 6.39481L106.575 6.68024H106.604C106.528 5.94753 106.489 5.36709 106.489 4.93882V0.171387H109V10.3772H106.475L103.62 5.62396C103.505 5.42411 103.376 5.18146 103.232 4.89603C103.089 4.60103 102.974 4.35838 102.888 4.16809L102.759 3.88266H102.73C102.807 4.61537 102.845 5.19581 102.845 5.62408V10.3773H100.334V10.3772Z" fill="#474747"/>
<path d="M63.4526 2.0684L62.8623 0.171387H60.1362L60.811 2.0684H63.4526Z" fill="#474747"/>
<path d="M67.1847 0.207031H69.9091L66.2765 10.5485H63.9109L67.1847 0.207031Z" fill="#474747"/>
</g>
<defs>
<clipPath id="clip0_18_397">
<rect width="109" height="10.667" fill="white"/>
</clipPath>
</defs>
</svg>
