<svg width="111" height="24" viewBox="0 0 111 24" fill="none" xmlns="http://www.w3.org/2000/svg">
<path d="M0.15625 18V1.19531H3.76562V18H0.15625ZM10.5977 6.23438V7.67578C10.6914 7.55078 10.8242 7.39844 10.9961 7.21875C11.168 7.03125 11.543 6.78125 12.1211 6.46875C12.707 6.15625 13.3203 6 13.9609 6C15.3047 6 16.3984 6.46484 17.2422 7.39453C18.0938 8.32422 18.5195 9.57812 18.5195 11.1562V18H15.2852V11.5195C15.2852 10.8008 15.0703 10.2227 14.6406 9.78516C14.2188 9.33984 13.6719 9.11719 13 9.11719C12.2656 9.11719 11.6797 9.35938 11.2422 9.84375C10.8125 10.3203 10.5977 11 10.5977 11.8828V18H7.36328V6.23438H10.5977ZM25.7148 6H25.832V5.63672C25.832 4.23047 26.3125 3.08203 27.2734 2.19141C28.2344 1.29297 29.5156 0.84375 31.1172 0.84375C32.75 0.84375 34.0586 1.35156 35.043 2.36719C36.0273 3.38281 36.5195 4.75391 36.5195 6.48047H38.9102V9.36328H36.5195V14.0391C36.5195 14.4062 36.6523 14.7188 36.918 14.9766C37.1914 15.2344 37.5391 15.3633 37.9609 15.3633C38.1719 15.3633 38.375 15.3438 38.5703 15.3047C38.7656 15.2578 38.9141 15.2109 39.0156 15.1641L39.1562 15.1172V17.8828C38.5156 18.125 37.7969 18.2422 37 18.2344C34.5234 18.2344 33.2812 16.875 33.2734 14.1562V9.36328H31.2344V6.48047H33.2734C33.2734 5.59766 33.0664 4.91797 32.6523 4.44141C32.2383 3.95703 31.6875 3.71484 31 3.71484C30.3438 3.71484 29.8164 3.91406 29.418 4.3125C29.0273 4.70312 28.832 5.22656 28.832 5.88281C28.832 6.20312 28.9102 6.52344 29.0664 6.84375C29.2305 7.16406 29.3945 7.40234 29.5586 7.55859L29.793 7.80469L28.1172 9.71484C28.0703 9.65234 27.9922 9.56641 27.8828 9.45703C27.7812 9.34766 27.5625 9.20703 27.2266 9.03516C26.8906 8.85547 26.5469 8.76562 26.1953 8.76562C25.75 8.76562 25.3984 8.86328 25.1406 9.05859C24.8828 9.24609 24.7539 9.46484 24.7539 9.71484C24.7539 10.0195 24.9375 10.2734 25.3047 10.4766C25.6719 10.6797 26.1172 10.8633 26.6406 11.0273C27.1719 11.1836 27.707 11.375 28.2461 11.6016C28.7852 11.8203 29.2383 12.1797 29.6055 12.6797C29.9727 13.1719 30.1562 13.7852 30.1562 14.5195C30.1562 15.5742 29.7383 16.457 28.9023 17.168C28.0742 17.8789 26.9336 18.2344 25.4805 18.2344C24.8555 18.2344 24.2617 18.1602 23.6992 18.0117C23.1367 17.8633 22.6797 17.6836 22.3281 17.4727C21.9766 17.2617 21.668 17.0547 21.4023 16.8516C21.1445 16.6406 20.957 16.4648 20.8398 16.3242L20.6758 16.0781L22.4805 14.2852C22.543 14.3789 22.6406 14.5 22.7734 14.6484C22.9141 14.7891 23.2031 14.9844 23.6406 15.2344C24.0781 15.4766 24.5312 15.5977 25 15.5977C25.5156 15.5977 25.9023 15.5 26.1602 15.3047C26.4258 15.1016 26.5586 14.8398 26.5586 14.5195C26.5586 14.1992 26.375 13.9336 26.0078 13.7227C25.6406 13.5039 25.1875 13.3164 24.6484 13.1602C24.1094 12.9961 23.5742 12.8008 23.043 12.5742C22.5195 12.3477 22.0742 11.9961 21.707 11.5195C21.3398 11.043 21.1562 10.4414 21.1562 9.71484C21.1562 8.76953 21.5938 7.91406 22.4688 7.14844C23.3516 6.38281 24.4336 6 25.7148 6ZM47.8984 18V16.8047C47.8047 16.9141 47.6719 17.0508 47.5 17.2148C47.3359 17.3711 46.9727 17.582 46.4102 17.8477C45.8477 18.1055 45.2617 18.2344 44.6523 18.2344C43.4805 18.2344 42.5273 17.9102 41.793 17.2617C41.0586 16.6055 40.6914 15.8125 40.6914 14.8828C40.6914 13.9219 41 13.1211 41.6172 12.4805C42.2344 11.8398 43.0859 11.4219 44.1719 11.2266L47.8984 10.5586C47.8984 10.0664 47.7188 9.66406 47.3594 9.35156C47 9.03906 46.5 8.88281 45.8594 8.88281C45.3281 8.88281 44.8438 8.98438 44.4062 9.1875C43.9688 9.38281 43.6602 9.58594 43.4805 9.79688L43.2109 10.0781L41.418 8.28516C41.4648 8.22266 41.5273 8.14062 41.6055 8.03906C41.6914 7.92969 41.875 7.74609 42.1562 7.48828C42.4453 7.23047 42.7578 7.00391 43.0938 6.80859C43.4297 6.60547 43.8711 6.42188 44.418 6.25781C44.9648 6.08594 45.5234 6 46.0938 6C47.5781 6 48.7891 6.44531 49.7266 7.33594C50.6641 8.21875 51.1328 9.33203 51.1328 10.6758V18H47.8984ZM45.4961 15.5977C46.2305 15.5977 46.8125 15.3672 47.2422 14.9062C47.6797 14.4375 47.8984 13.7891 47.8984 12.9609V12.5977L45.2617 13.0781C44.3789 13.2188 43.9375 13.6602 43.9375 14.4023C43.9375 15.1992 44.457 15.5977 45.4961 15.5977ZM74.3008 1.19531V18H70.7031V11.1562H63.5078V18H59.8984V1.19531H63.5078V7.92188H70.7031V1.19531H74.3008ZM89.0664 13.1953H80.5469C80.6719 13.8359 81.0117 14.3789 81.5664 14.8242C82.1211 15.2617 82.8203 15.4805 83.6641 15.4805C84.2734 15.4805 84.8359 15.3633 85.3516 15.1289C85.875 14.8867 86.2422 14.6445 86.4531 14.4023L86.793 14.0391L88.4688 16.1953L88.2578 16.4062C88.1562 16.5078 87.9453 16.6758 87.625 16.9102C87.3047 17.1445 86.9648 17.3555 86.6055 17.543C86.2461 17.7227 85.7773 17.8828 85.1992 18.0234C84.6289 18.1641 84.0391 18.2344 83.4297 18.2344C81.7031 18.2344 80.2305 17.6367 79.0117 16.4414C77.793 15.2383 77.1836 13.7969 77.1836 12.1172C77.1836 10.4375 77.7852 9 78.9883 7.80469C80.1914 6.60156 81.6328 6 83.3125 6C84.9922 6 86.3906 6.5625 87.5078 7.6875C88.625 8.80469 89.1836 10.2031 89.1836 11.8828L89.0664 13.1953ZM85.0469 9.375C84.5781 8.96875 84 8.76562 83.3125 8.76562C82.625 8.76562 82.0391 8.96484 81.5547 9.36328C81.0781 9.76172 80.7422 10.2812 80.5469 10.9219H85.9492C85.8242 10.2969 85.5234 9.78125 85.0469 9.375ZM94.9609 1.19531V18H91.7148V1.19531H94.9609ZM104.922 18.2344C104.25 18.2344 103.621 18.0977 103.035 17.8242C102.457 17.543 102.047 17.2656 101.805 16.9922L101.441 16.5586V23.0391H98.207V6.23438H101.441V7.67578C101.473 7.62891 101.52 7.57031 101.582 7.5C101.652 7.42969 101.793 7.30078 102.004 7.11328C102.223 6.91797 102.457 6.74609 102.707 6.59766C102.957 6.44141 103.281 6.30469 103.68 6.1875C104.078 6.0625 104.492 6 104.922 6C106.445 6 107.766 6.59375 108.883 7.78125C110.008 8.96094 110.57 10.4062 110.57 12.1172C110.57 13.8281 110.008 15.2773 108.883 16.4648C107.766 17.6445 106.445 18.2344 104.922 18.2344ZM106.363 9.79688C105.809 9.1875 105.129 8.88281 104.324 8.88281C103.527 8.88281 102.848 9.1875 102.285 9.79688C101.723 10.3984 101.441 11.1719 101.441 12.1172C101.441 13.0625 101.723 13.8398 102.285 14.4492C102.848 15.0586 103.527 15.3633 104.324 15.3633C105.129 15.3633 105.809 15.0586 106.363 14.4492C106.926 13.8398 107.207 13.0625 107.207 12.1172C107.207 11.1719 106.926 10.3984 106.363 9.79688Z" fill="url(#paint0_linear_4_89)"/>
<defs>
<linearGradient id="paint0_linear_4_89" x1="-5.38919" y1="25.6102" x2="105.146" y2="-15.3146" gradientUnits="userSpaceOnUse">
<stop offset="0.015625" stop-color="#833AB4"/>
<stop offset="0.380208" stop-color="#C13584"/>
<stop offset="0.65625" stop-color="#E1306C"/>
<stop offset="1" stop-color="#E08F53"/>
</linearGradient>
</defs>
</svg>
