<svg width="24" height="24" viewBox="0 0 24 24" fill="none" xmlns="http://www.w3.org/2000/svg">
<path fill-rule="evenodd" clip-rule="evenodd" d="M7.8001 4.1001H7.7624H7.76237C6.95433 4.10009 6.29349 4.10008 5.75642 4.14396C5.2005 4.18938 4.69842 4.28626 4.22954 4.52517C3.4957 4.89908 2.89908 5.4957 2.52517 6.22954C2.28626 6.69842 2.18938 7.2005 2.14396 7.75642C2.10008 8.29349 2.10009 8.95433 2.1001 9.76238V9.7624V9.8001V14.2001V14.2378V14.2378C2.10009 15.0459 2.10008 15.7067 2.14396 16.2438C2.18938 16.7997 2.28626 17.3018 2.52517 17.7707C2.89908 18.5045 3.4957 19.1011 4.22954 19.475C4.69842 19.7139 5.2005 19.8108 5.75642 19.8562C6.29349 19.9001 6.95434 19.9001 7.76239 19.9001H7.8001H16.2001H16.2378C17.0459 19.9001 17.7067 19.9001 18.2438 19.8562C18.7997 19.8108 19.3018 19.7139 19.7707 19.475C20.5045 19.1011 21.1011 18.5045 21.475 17.7707C21.7139 17.3018 21.8108 16.7997 21.8562 16.2438C21.9001 15.7067 21.9001 15.0459 21.9001 14.2378V14.2001V9.8001V9.76239C21.9001 8.95434 21.9001 8.29349 21.8562 7.75642C21.8108 7.2005 21.7139 6.69842 21.475 6.22954C21.1011 5.4957 20.5045 4.89908 19.7707 4.52517C19.3018 4.28626 18.7997 4.18938 18.2438 4.14396C17.7067 4.10008 17.0459 4.10009 16.2378 4.1001H16.2378H16.2001H7.8001ZM5.38073 6.01226C5.5163 5.98091 5.68489 5.9558 5.90299 5.93798C6.3581 5.9008 6.94517 5.9001 7.8001 5.9001H16.2001C17.055 5.9001 17.6421 5.9008 18.0972 5.93798C18.3153 5.9558 18.4839 5.98091 18.6195 6.01226L14.6104 9.52018C14.0326 10.0258 13.637 10.3711 13.3075 10.6175C12.9871 10.8571 12.7833 10.9606 12.607 11.0128C12.2109 11.1299 11.7893 11.1299 11.3932 11.0128C11.2169 10.9606 11.0131 10.8571 10.6926 10.6175C10.3632 10.3711 9.9676 10.0258 9.38979 9.52019L5.38073 6.01226ZM4.0505 7.24009C4.00096 7.39577 3.96255 7.60233 3.93798 7.90299C3.9008 8.3581 3.9001 8.94517 3.9001 9.8001V14.2001C3.9001 15.055 3.9008 15.6421 3.93798 16.0972C3.97431 16.5418 4.04092 16.7806 4.12898 16.9535C4.33032 17.3486 4.65158 17.6699 5.04672 17.8712C5.21956 17.9593 5.45839 18.0259 5.90299 18.0622C6.3581 18.0994 6.94517 18.1001 7.8001 18.1001H16.2001C17.055 18.1001 17.6421 18.0994 18.0972 18.0622C18.5418 18.0259 18.7806 17.9593 18.9535 17.8712C19.3486 17.6699 19.6699 17.3486 19.8712 16.9535C19.9593 16.7806 20.0259 16.5418 20.0622 16.0972C20.0994 15.6421 20.1001 15.055 20.1001 14.2001V9.8001C20.1001 8.94517 20.0994 8.3581 20.0622 7.90299C20.0377 7.60233 19.9992 7.39577 19.9497 7.24009L15.7957 10.8748L15.7695 10.8978C15.2244 11.3748 14.7769 11.7663 14.3855 12.059C13.9789 12.3631 13.5797 12.6022 13.1174 12.7389C12.3882 12.9546 11.612 12.9546 10.8828 12.7389C10.4205 12.6022 10.0213 12.3631 9.61468 12.059C9.22329 11.7663 8.77586 11.3748 8.23074 10.8978L8.20448 10.8748L4.0505 7.24009Z" fill="#4F4F4F"/>
</svg>
