<svg width="28" height="28" viewBox="0 0 28 28" fill="none" xmlns="http://www.w3.org/2000/svg">
<path fill-rule="evenodd" clip-rule="evenodd" d="M7.85198 27.7717C6.73095 27.3073 6.00003 26.2134 6.00003 25V22C5.54541 21.9999 5.06368 21.9973 4.64214 21.9628C4.12311 21.9204 3.43739 21.8155 2.73007 21.4551C1.78926 20.9757 1.02436 20.2108 0.544996 19.27C0.184601 18.5627 0.0796468 17.8769 0.0372407 17.3579C-0.000227038 16.8993 -0.000103538 16.3695 1.30489e-05 15.8809C0.00078629 12.627 0.00078629 9.37307 1.30489e-05 6.11916C-0.000103538 5.63052 -0.000227038 5.10072 0.0372407 4.64213C0.0796468 4.12311 0.184601 3.43739 0.544996 2.73007C1.02436 1.78926 1.78926 1.02436 2.73007 0.544993C3.43739 0.184598 4.12311 0.0796437 4.64214 0.0372376C5.10072 -0.000230111 5.63052 -0.00010351 6.11916 1.30769e-05C11.3731 0.00126159 16.627 0.00126163 21.8809 1.30769e-05C22.3695 -0.00010351 22.8993 -0.000230111 23.3579 0.0372376C23.8769 0.0796437 24.5627 0.184598 25.27 0.544993C26.2108 1.02436 26.9757 1.78926 27.4551 2.73007C27.8155 3.43739 27.9204 4.12311 27.9628 4.64213C28.0003 5.10072 28.0002 5.63053 28 6.11917C27.9994 9.37307 27.9994 12.627 28 15.8809C28.0002 16.3695 28.0003 16.8993 27.9628 17.3579C27.9204 17.8769 27.8155 18.5627 27.4551 19.27C26.9757 20.2108 26.2108 20.9757 25.27 21.4551C24.5627 21.8155 23.8769 21.9204 23.3579 21.9628C22.8993 22.0003 22.3695 22.0002 21.8809 22C19.9825 21.9996 18.1219 21.9992 16.2427 22C14.5348 23.7064 12.8285 25.4142 11.1213 27.1213C10.2634 27.9793 8.973 28.236 7.85198 27.7717ZM9.00003 25V20.6C9.00003 20.04 9.00003 19.7599 8.89104 19.546C8.79516 19.3579 8.64218 19.2049 8.45402 19.109C8.24011 19 7.96008 19 7.40003 19H6.20003C5.07992 19 4.51987 19 4.09205 18.782C3.71572 18.5903 3.40976 18.2843 3.21802 17.908C3.00003 17.4802 3.00003 16.9201 3.00003 15.8V6.20003C3.00003 5.07992 3.00003 4.51987 3.21802 4.09204C3.40976 3.71572 3.71572 3.40976 4.09205 3.21801C4.51987 3.00003 5.07992 3.00003 6.20003 3.00003H21.8C22.9201 3.00003 23.4802 3.00003 23.908 3.21801C24.2843 3.40976 24.5903 3.71572 24.782 4.09204C25 4.51987 25 5.07992 25 6.20003V15.8C25 16.9201 25 17.4802 24.782 17.908C24.5903 18.2843 24.2843 18.5903 23.908 18.782C23.4802 19 22.9201 19 21.8 19H16.3255C15.8363 19 15.5917 19 15.3616 19.0553C15.1575 19.1043 14.9624 19.1851 14.7835 19.2947C14.5816 19.4184 14.4087 19.5914 14.0628 19.9373L9.00003 25Z" fill="url(#paint0_linear_44_29)"/>
<defs>
<linearGradient id="paint0_linear_44_29" x1="-0.832435" y1="30.6103" x2="29.7849" y2="27.826" gradientUnits="userSpaceOnUse">
<stop offset="0.015625" stop-color="#833AB4"/>
<stop offset="0.380208" stop-color="#C13584"/>
<stop offset="0.65625" stop-color="#E1306C"/>
<stop offset="1" stop-color="#E08F53"/>
</linearGradient>
</defs>
</svg>
