<svg width="29" height="24" viewBox="0 0 29 24" fill="none" xmlns="http://www.w3.org/2000/svg">
<path fill-rule="evenodd" clip-rule="evenodd" d="M8.30574 -4.1419e-05C8.36953 -1.54314e-05 8.43427 1.09138e-05 8.5 1.09138e-05H16.5C16.5657 1.09138e-05 16.6305 -1.54314e-05 16.6943 -4.1419e-05C17.8998 -0.0005328 18.7656 -0.000885665 19.5174 0.179606C21.8941 0.750206 23.7498 2.6059 24.3204 4.98262C24.4295 5.43723 24.472 5.92625 24.4887 6.49531C26.0808 7.15516 27.3457 8.4203 28.0052 10.0126C28.2838 10.6852 28.3962 11.3885 28.4489 12.1621C28.5 12.9107 28.5 13.8273 28.5 14.9479V15.0522C28.5 16.1727 28.5 17.0893 28.4489 17.8379C28.3962 18.6116 28.2838 19.3148 28.0052 19.9875C27.3455 21.5801 26.0801 22.8455 24.4874 23.5052C23.8148 23.7839 23.1115 23.8962 22.3379 23.949C21.5893 24 20.6727 24 19.5521 24H9.93713C8.59039 24 7.48899 24 6.59386 23.9269C5.66734 23.8512 4.83054 23.6897 4.04906 23.2916C2.82601 22.6684 1.83164 21.674 1.20846 20.4509C0.810274 19.6695 0.648805 18.8327 0.573105 17.9061C0.49997 17.011 0.499983 15.9096 0.500001 14.5628L0.50029 7.49727C0.502164 6.47187 0.509996 5.68905 0.679596 4.98262C1.2502 2.6059 3.10589 0.750206 5.48261 0.179606C6.23441 -0.000885665 7.10017 -0.0005328 8.30574 -4.1419e-05ZM21.4571 6.01311C21.4435 5.88103 21.4259 5.77698 21.4033 5.68295C21.0961 4.40318 20.0968 3.40396 18.8171 3.09672C18.4578 3.01046 17.9812 3.00001 16.5 3.00001H8.5C7.01884 3.00001 6.54223 3.01046 6.18294 3.09672C4.90317 3.40396 3.90395 4.40318 3.59671 5.68295C3.57506 5.77311 3.55787 5.87326 3.54437 6.00001H19.5C19.5467 6.00001 19.5931 6.00001 19.6391 6C20.3098 5.99994 20.9128 5.99989 21.4571 6.01311ZM3.5 9.00001V14.5C3.5 15.9249 3.50117 16.9033 3.56314 17.6619C3.62368 18.4029 3.73469 18.8009 3.88148 19.089C4.21703 19.7475 4.75247 20.283 5.41103 20.6185C5.69911 20.7653 6.09716 20.8763 6.83816 20.9369C7.59667 20.9988 8.57512 21 10 21H19.5C20.6854 21 21.4993 20.9992 22.1337 20.9559C22.7546 20.9135 23.0932 20.8356 23.3394 20.7336C24.197 20.3784 24.8784 19.697 25.2336 18.8394C25.3356 18.5932 25.4135 18.2546 25.4559 17.6337C25.4992 16.9993 25.5 16.1854 25.5 15C25.5 13.8146 25.4992 13.0007 25.4559 12.3663C25.4135 11.7454 25.3356 11.4068 25.2336 11.1606C24.8784 10.303 24.197 9.62166 23.3394 9.26643C23.1924 9.20556 23.0114 9.15302 22.7584 9.11175C22.1032 9.00488 21.191 9.00001 19.5 9.00001H3.5ZM16.5 14C16.5 13.1716 17.1716 12.5 18 12.5H21C21.8284 12.5 22.5 13.1716 22.5 14C22.5 14.8284 21.8284 15.5 21 15.5H18C17.1716 15.5 16.5 14.8284 16.5 14Z" fill="url(#paint0_linear_18_79)"/>
<defs>
<linearGradient id="paint0_linear_18_79" x1="-0.332433" y1="26.2373" x2="30.1945" y2="22.9986" gradientUnits="userSpaceOnUse">
<stop offset="0.015625" stop-color="#833AB4"/>
<stop offset="0.380208" stop-color="#C13584"/>
<stop offset="0.65625" stop-color="#E1306C"/>
<stop offset="1" stop-color="#E08F53"/>
</linearGradient>
</defs>
</svg>
