<svg width="24" height="24" viewBox="0 0 24 24" fill="none" xmlns="http://www.w3.org/2000/svg">
<path fill-rule="evenodd" clip-rule="evenodd" d="M4.8 1.38462C4.8 0.619913 5.60589 0 6.6 0H15C19.9706 0 24 3.09957 24 6.92308C24 10.7466 19.9706 13.8462 15 13.8462L8.4 13.8462V16.6154L12.6 16.6154C13.5941 16.6154 14.4 17.2353 14.4 18C14.4 18.7647 13.5941 19.3846 12.6 19.3846L8.4 19.3846V22.6154C8.4 23.3801 7.59411 24 6.6 24C5.60589 24 4.8 23.3801 4.8 22.6154V19.3846H1.8C0.805886 19.3846 -5.72204e-07 18.7647 0 18C5.72205e-07 17.2353 0.805889 16.6154 1.8 16.6154L4.8 16.6154V13.8462L1.8 13.8462C0.805889 13.8462 5.72205e-07 13.2262 0 12.4615C-5.72204e-07 11.6968 0.805886 11.0769 1.8 11.0769L4.8 11.0769V1.38462ZM8.4 2.76923V11.0769C10.6 11.0769 12.8 11.0769 15 11.0769C17.9823 11.0769 20.4 9.21718 20.4 6.92308C20.4 4.62897 17.9823 2.76923 15 2.76923H8.4Z" fill="url(#paint0_linear_18_59)"/>
<defs>
<linearGradient id="paint0_linear_18_59" x1="-0.713514" y1="26.2373" x2="25.5299" y2="23.8508" gradientUnits="userSpaceOnUse">
<stop offset="0.015625" stop-color="#833AB4"/>
<stop offset="0.380208" stop-color="#C13584"/>
<stop offset="0.65625" stop-color="#E1306C"/>
<stop offset="1" stop-color="#E08F53"/>
</linearGradient>
</defs>
</svg>
