<svg width="18" height="20" viewBox="0 0 18 20" fill="none" xmlns="http://www.w3.org/2000/svg">
<path d="M1.9438 13.5337C1.28952 15.2857 0.878445 16.5164 0.71057 17.2259C0.183579 19.4531 -0.199607 19.9547 1.76455 18.8963C3.72871 17.8378 13.2375 12.5946 15.359 11.4294C18.1244 9.91042 18.1614 10.0291 15.2106 8.41633C12.9632 7.188 3.5659 2.08155 1.76455 1.0789C-0.0367938 0.0762491 0.183579 0.522107 0.71057 2.74928C0.880621 3.46794 1.29767 4.70967 1.96171 6.47445C2.42403 7.7031 3.49198 8.60296 4.78125 8.8502L10.295 9.90753C10.3465 9.91774 10.38 9.96741 10.3697 10.0185C10.3621 10.0558 10.3327 10.085 10.295 10.0924L4.76881 11.1488C3.47534 11.396 2.40451 12.3 1.9438 13.5337Z" fill="url(#paint0_linear_24_60)"/>
<defs>
<linearGradient id="paint0_linear_24_60" x1="-0.223947" y1="21.1864" x2="18.5481" y2="19.6345" gradientUnits="userSpaceOnUse">
<stop offset="0.015625" stop-color="#833AB4"/>
<stop offset="0.380208" stop-color="#C13584"/>
<stop offset="0.65625" stop-color="#E1306C"/>
<stop offset="1" stop-color="#E08F53"/>
</linearGradient>
</defs>
</svg>
