<svg width="28" height="28" viewBox="0 0 28 28" fill="none" xmlns="http://www.w3.org/2000/svg">
<path fill-rule="evenodd" clip-rule="evenodd" d="M25.1999 14C25.1999 16.5158 24.3705 18.8378 22.9701 20.7075L20.6745 18.4119C21.5121 17.1472 21.9999 15.6306 21.9999 14C21.9999 12.3695 21.5121 10.8529 20.6745 9.5882L22.9701 7.29255C24.3705 9.16228 25.1999 11.4843 25.1999 14ZM20.7074 5.02981C18.8376 3.62947 16.5156 2.80002 13.9999 2.80002C11.4842 2.80002 9.16216 3.62947 7.29243 5.02981L9.58809 7.32547C10.8528 6.48783 12.3694 6.00003 13.9999 6.00003C15.6304 6.00003 17.147 6.48783 18.4117 7.32546L20.7074 5.02981ZM13.9999 25.2C16.5156 25.2 18.8376 24.3706 20.7074 22.9702L18.4117 20.6746C17.147 21.5122 15.6304 22 13.9999 22C12.3694 22 10.8528 21.5122 9.58808 20.6746L7.29243 22.9702C9.16216 24.3706 11.4842 25.2 13.9999 25.2ZM5.02969 20.7075C3.62935 18.8378 2.7999 16.5158 2.7999 14C2.7999 11.4843 3.62935 9.16228 5.02969 7.29255L7.32535 9.58821C6.48772 10.8529 5.99991 12.3695 5.99991 14C5.99991 15.6306 6.48771 17.1472 7.32534 18.4118L5.02969 20.7075ZM27.5999 14C27.5999 21.5111 21.511 27.6 13.9999 27.6C6.48883 27.6 0.399902 21.5111 0.399902 14C0.399902 6.48895 6.48883 0.400024 13.9999 0.400024C21.511 0.400024 27.5999 6.48895 27.5999 14ZM19.5999 14C19.5999 17.0928 17.0927 19.6 13.9999 19.6C10.9071 19.6 8.39991 17.0928 8.39991 14C8.39991 10.9072 10.9071 8.40003 13.9999 8.40003C17.0927 8.40003 19.5999 10.9072 19.5999 14Z" fill="url(#paint0_linear_18_205)"/>
<defs>
<linearGradient id="paint0_linear_18_205" x1="-0.408747" y1="30.1356" x2="29.3338" y2="27.4309" gradientUnits="userSpaceOnUse">
<stop offset="0.015625" stop-color="#833AB4"/>
<stop offset="0.380208" stop-color="#C13584"/>
<stop offset="0.65625" stop-color="#E1306C"/>
<stop offset="1" stop-color="#E08F53"/>
</linearGradient>
</defs>
</svg>
