<svg width="30" height="30" viewBox="0 0 30 30" fill="none" xmlns="http://www.w3.org/2000/svg">
<path fill-rule="evenodd" clip-rule="evenodd" d="M16.2576 1.25027C16.2576 0.559561 15.6977 -0.000366211 15.0071 -0.000366211C14.3165 -0.000366211 13.7566 0.559561 13.7566 1.25027V2.97383C8.07386 3.55475 3.55694 8.0739 2.97886 13.758H1.25027C0.559632 13.758 -0.000244141 14.3179 -0.000244141 15.0086C-0.000244141 15.6993 0.559632 16.2592 1.25027 16.2592H2.98157C3.57091 21.931 8.0827 26.4371 13.7567 27.0171V28.7455C13.7567 29.4362 14.3166 29.9961 15.0072 29.9961C15.6979 29.9961 16.2577 29.4362 16.2577 28.7455V27.0156C21.925 26.4294 26.4296 21.9261 27.0184 16.2591H28.7498C29.4405 16.2591 30.0004 15.6992 30.0004 15.0085C30.0004 14.3178 29.4405 13.7578 28.7498 13.7578H27.0211C26.4434 8.07857 21.9336 3.5623 16.2576 2.97529V1.25027ZM7.08353 16.2592H5.4999C6.06484 20.548 9.46547 23.9431 13.7567 24.4991V22.9117C13.7567 22.221 14.3166 21.6611 15.0072 21.6611C15.6979 21.6611 16.2577 22.221 16.2577 22.9117V24.4972C20.5422 23.9354 23.9358 20.5431 24.5001 16.2591H22.9166C22.226 16.2591 21.6661 15.6992 21.6661 15.0085C21.6661 14.3178 22.226 13.7578 22.9166 13.7578H24.5035C23.9496 9.46146 20.5508 6.05653 16.2576 5.49369V7.08405C16.2576 7.77476 15.6977 8.33469 15.0071 8.33469C14.3165 8.33469 13.7566 7.77476 13.7566 7.08405V5.49183C9.45663 6.04901 6.05092 9.45679 5.49647 13.758H7.08353C7.77417 13.758 8.33405 14.3179 8.33405 15.0086C8.33405 15.6993 7.77417 16.2592 7.08353 16.2592ZM15 17.5016C16.3807 17.5016 17.4999 16.3822 17.4999 15.0014C17.4999 13.6206 16.3807 12.5012 15 12.5012C13.6193 12.5012 12.5 13.6206 12.5 15.0014C12.5 16.3822 13.6193 17.5016 15 17.5016Z" fill="url(#paint0_linear_18_255)"/>
<defs>
<linearGradient id="paint0_linear_18_255" x1="-0.892155" y1="32.7924" x2="31.9127" y2="29.8088" gradientUnits="userSpaceOnUse">
<stop offset="0.015625" stop-color="#833AB4"/>
<stop offset="0.380208" stop-color="#C13584"/>
<stop offset="0.65625" stop-color="#E1306C"/>
<stop offset="1" stop-color="#E08F53"/>
</linearGradient>
</defs>
</svg>
