<svg width="32" height="27" viewBox="0 0 32 27" fill="none" xmlns="http://www.w3.org/2000/svg">
<path fill-rule="evenodd" clip-rule="evenodd" d="M12.7728 0.600051H9.60005C8.28817 0.600051 6.95226 1.18885 6.10222 2.25139L1.49077 8.01571C1.06859 8.54343 0.864921 9.18451 0.877769 9.82136C0.877843 9.82502 0.877924 9.82868 0.878012 9.83234C0.893115 10.4594 1.11817 11.0818 1.55128 11.5871L13.8741 25.9637C14.9916 27.2674 17.0085 27.2674 18.126 25.9637L30.4488 11.5871C30.8818 11.0819 31.1069 10.4597 31.1221 9.8327C31.1222 9.82828 31.1223 9.82386 31.1224 9.81943C31.1348 9.18321 30.9311 8.5429 30.5093 8.01571L25.8979 2.25139C25.0478 1.18885 23.7119 0.600051 22.4 0.600051H19.172C19.1905 0.599624 19.1537 0.599626 19.172 0.600051H12.7728C12.7544 0.599624 12.7912 0.599626 12.7728 0.600051ZM18.3875 3.00005H13.6125L11.3725 8.60005H20.6275L18.3875 3.00005ZM20.9724 3.00005L23.2124 8.60005H27.9033L24.0238 3.75066C23.6593 3.29502 23.0324 3.00005 22.4 3.00005H20.9724ZM27.791 11.0001H23.1798L18.2141 22.1731L27.791 11.0001ZM16 21.2454L20.5535 11.0001H11.4466L16 21.2454ZM8.82021 11.0001L13.786 22.1731L4.20911 11.0001H8.82021ZM8.78762 8.60005L11.0276 3.00005H9.60005C8.96771 3.00005 8.34081 3.29503 7.9763 3.75066L4.09679 8.60005H8.78762Z" fill="url(#paint0_linear_18_227)"/>
<defs>
<linearGradient id="paint0_linear_18_227" x1="-0.0219996" y1="29.3971" x2="32.9648" y2="25.9528" gradientUnits="userSpaceOnUse">
<stop offset="0.015625" stop-color="#833AB4"/>
<stop offset="0.380208" stop-color="#C13584"/>
<stop offset="0.65625" stop-color="#E1306C"/>
<stop offset="1" stop-color="#E08F53"/>
</linearGradient>
</defs>
</svg>
