<svg width="28" height="28" viewBox="0 0 28 28" fill="none" xmlns="http://www.w3.org/2000/svg">
<path fill-rule="evenodd" clip-rule="evenodd" d="M14 3C7.92487 3 3 7.92487 3 14C3 20.0751 7.92487 25 14 25C20.0751 25 25 20.0751 25 14C25 7.92487 20.0751 3 14 3ZM0 14C0 6.26801 6.26801 0 14 0C21.732 0 28 6.26801 28 14C28 21.732 21.732 28 14 28C6.26801 28 0 21.732 0 14Z" fill="url(#paint0_linear_44_25)"/>
<path d="M12 11C12 12.1046 11.1046 13 10 13C8.89543 13 8 12.1046 8 11C8 9.89543 8.89543 9 10 9C11.1046 9 12 9.89543 12 11Z" fill="url(#paint1_linear_44_25)"/>
<path d="M20 11C20 12.1046 19.1046 13 18 13C16.8954 13 16 12.1046 16 11C16 9.89543 16.8954 9 18 9C19.1046 9 20 9.89543 20 11Z" fill="url(#paint2_linear_44_25)"/>
<path fill-rule="evenodd" clip-rule="evenodd" d="M9.10109 16.2884C9.76433 15.792 10.7044 15.9273 11.2008 16.5905C11.8412 17.4461 12.8595 17.9961 14.0077 17.9961C15.1559 17.9961 16.1742 17.4461 16.8146 16.5905C17.311 15.9273 18.251 15.792 18.9143 16.2884C19.5775 16.7848 19.7128 17.7248 19.2164 18.3881C18.0333 19.9689 16.1401 20.9961 14.0077 20.9961C11.8753 20.9961 9.98207 19.9689 8.79897 18.3881C8.30258 17.7248 8.43785 16.7848 9.10109 16.2884Z" fill="url(#paint3_linear_44_25)"/>
<defs>
<linearGradient id="paint0_linear_44_25" x1="-0.832433" y1="30.6102" x2="29.7849" y2="27.8259" gradientUnits="userSpaceOnUse">
<stop offset="0.015625" stop-color="#833AB4"/>
<stop offset="0.380208" stop-color="#C13584"/>
<stop offset="0.65625" stop-color="#E1306C"/>
<stop offset="1" stop-color="#E08F53"/>
</linearGradient>
<linearGradient id="paint1_linear_44_25" x1="-0.832433" y1="30.6102" x2="29.7849" y2="27.8259" gradientUnits="userSpaceOnUse">
<stop offset="0.015625" stop-color="#833AB4"/>
<stop offset="0.380208" stop-color="#C13584"/>
<stop offset="0.65625" stop-color="#E1306C"/>
<stop offset="1" stop-color="#E08F53"/>
</linearGradient>
<linearGradient id="paint2_linear_44_25" x1="-0.832433" y1="30.6102" x2="29.7849" y2="27.8259" gradientUnits="userSpaceOnUse">
<stop offset="0.015625" stop-color="#833AB4"/>
<stop offset="0.380208" stop-color="#C13584"/>
<stop offset="0.65625" stop-color="#E1306C"/>
<stop offset="1" stop-color="#E08F53"/>
</linearGradient>
<linearGradient id="paint3_linear_44_25" x1="-0.832433" y1="30.6102" x2="29.7849" y2="27.8259" gradientUnits="userSpaceOnUse">
<stop offset="0.015625" stop-color="#833AB4"/>
<stop offset="0.380208" stop-color="#C13584"/>
<stop offset="0.65625" stop-color="#E1306C"/>
<stop offset="1" stop-color="#E08F53"/>
</linearGradient>
</defs>
</svg>
