<svg width="28" height="28" viewBox="0 0 28 28" fill="none" xmlns="http://www.w3.org/2000/svg">
<path fill-rule="evenodd" clip-rule="evenodd" d="M14 3C7.92487 3 3 7.92487 3 14C3 20.0751 7.92487 25 14 25C20.0751 25 25 20.0751 25 14C25 7.92487 20.0751 3 14 3ZM0 14C0 6.26801 6.26801 0 14 0C21.732 0 28 6.26801 28 14C28 21.732 21.732 28 14 28C6.26801 28 0 21.732 0 14Z" fill="url(#paint0_linear_18_158)"/>
<path d="M12 11C12 12.1046 11.1046 13 10 13C8.89543 13 8 12.1046 8 11C8 9.89543 8.89543 9 10 9C11.1046 9 12 9.89543 12 11Z" fill="url(#paint1_linear_18_158)"/>
<path d="M20 11C20 12.1046 19.1046 13 18 13C16.8954 13 16 12.1046 16 11C16 9.89543 16.8954 9 18 9C19.1046 9 20 9.89543 20 11Z" fill="url(#paint2_linear_18_158)"/>
<path fill-rule="evenodd" clip-rule="evenodd" d="M9.10109 20.697C9.76433 21.1934 10.7044 21.0581 11.2008 20.3949C11.8412 19.5393 12.8595 18.9893 14.0077 18.9893C15.1559 18.9893 16.1742 19.5393 16.8146 20.3949C17.311 21.0581 18.251 21.1934 18.9143 20.697C19.5775 20.2006 19.7128 19.2606 19.2164 18.5973C18.0333 17.0165 16.1401 15.9893 14.0077 15.9893C11.8753 15.9893 9.98207 17.0165 8.79897 18.5973C8.30258 19.2606 8.43785 20.2006 9.10109 20.697Z" fill="url(#paint3_linear_18_158)"/>
<defs>
<linearGradient id="paint0_linear_18_158" x1="-0.832433" y1="30.6102" x2="29.7849" y2="27.8259" gradientUnits="userSpaceOnUse">
<stop offset="0.015625" stop-color="#833AB4"/>
<stop offset="0.380208" stop-color="#C13584"/>
<stop offset="0.65625" stop-color="#E1306C"/>
<stop offset="1" stop-color="#E08F53"/>
</linearGradient>
<linearGradient id="paint1_linear_18_158" x1="-0.832433" y1="30.6102" x2="29.7849" y2="27.8259" gradientUnits="userSpaceOnUse">
<stop offset="0.015625" stop-color="#833AB4"/>
<stop offset="0.380208" stop-color="#C13584"/>
<stop offset="0.65625" stop-color="#E1306C"/>
<stop offset="1" stop-color="#E08F53"/>
</linearGradient>
<linearGradient id="paint2_linear_18_158" x1="-0.832433" y1="30.6102" x2="29.7849" y2="27.8259" gradientUnits="userSpaceOnUse">
<stop offset="0.015625" stop-color="#833AB4"/>
<stop offset="0.380208" stop-color="#C13584"/>
<stop offset="0.65625" stop-color="#E1306C"/>
<stop offset="1" stop-color="#E08F53"/>
</linearGradient>
<linearGradient id="paint3_linear_18_158" x1="-0.832433" y1="30.6102" x2="29.7849" y2="27.8259" gradientUnits="userSpaceOnUse">
<stop offset="0.015625" stop-color="#833AB4"/>
<stop offset="0.380208" stop-color="#C13584"/>
<stop offset="0.65625" stop-color="#E1306C"/>
<stop offset="1" stop-color="#E08F53"/>
</linearGradient>
</defs>
</svg>
