<svg width="28" height="28" viewBox="0 0 28 28" fill="none" xmlns="http://www.w3.org/2000/svg">
<path d="M9.33333 20.2222C9.33333 21.0813 8.63689 21.7778 7.77778 21.7778C6.91867 21.7778 6.22222 21.0813 6.22222 20.2222C6.22222 19.3631 6.91867 18.6667 7.77778 18.6667C8.63689 18.6667 9.33333 19.3631 9.33333 20.2222Z" fill="url(#paint0_linear_18_172)"/>
<path fill-rule="evenodd" clip-rule="evenodd" d="M25.4703 0.455612C26.0778 1.06309 26.0778 2.04802 25.4703 2.6555L23.9777 4.14815L27.5444 7.71487C28.1519 8.32235 28.1519 9.30728 27.5444 9.91476C26.9369 10.5222 25.952 10.5222 25.3445 9.91476L21.7778 6.34804L19.8295 8.2963L23.3962 11.863C24.0037 12.4705 24.0037 13.4554 23.3962 14.0629C22.7888 14.6704 21.8038 14.6704 21.1964 14.0629L17.6296 10.4962L15.1104 13.0155C16.6687 14.6054 17.6295 16.7831 17.6295 19.1852C17.6295 24.0535 13.683 28 8.81474 28C3.94648 28 0 24.0535 0 19.1852C0 14.3169 3.94648 10.3704 8.81474 10.3704C10.1439 10.3704 11.4044 10.6646 12.5346 11.1914L16.529 7.19708L23.2704 0.455612C23.8779 -0.151871 24.8628 -0.151871 25.4703 0.455612ZM8.81474 13.4815C5.66473 13.4815 3.11111 16.0351 3.11111 19.1852C3.11111 22.3353 5.66473 24.8889 8.81474 24.8889C11.9648 24.8889 14.5184 22.3353 14.5184 19.1852C14.5184 16.0351 11.9648 13.4815 8.81474 13.4815Z" fill="url(#paint1_linear_18_172)"/>
<defs>
<linearGradient id="paint0_linear_18_172" x1="-0.832433" y1="30.6102" x2="29.7849" y2="27.8259" gradientUnits="userSpaceOnUse">
<stop offset="0.015625" stop-color="#833AB4"/>
<stop offset="0.380208" stop-color="#C13584"/>
<stop offset="0.65625" stop-color="#E1306C"/>
<stop offset="1" stop-color="#E08F53"/>
</linearGradient>
<linearGradient id="paint1_linear_18_172" x1="-0.832433" y1="30.6102" x2="29.7849" y2="27.8259" gradientUnits="userSpaceOnUse">
<stop offset="0.015625" stop-color="#833AB4"/>
<stop offset="0.380208" stop-color="#C13584"/>
<stop offset="0.65625" stop-color="#E1306C"/>
<stop offset="1" stop-color="#E08F53"/>
</linearGradient>
</defs>
</svg>
