<svg width="29" height="30" viewBox="0 0 29 30" fill="none" xmlns="http://www.w3.org/2000/svg">
<path fill-rule="evenodd" clip-rule="evenodd" d="M2.14863 0.951478C1.68 0.482849 0.920199 0.482849 0.451569 0.951478C-0.0170596 1.42011 -0.0170596 2.1799 0.451569 2.64853L2.87369 5.07065C2.7079 5.31107 2.5575 5.56314 2.42381 5.82551C2.02679 6.60471 1.85838 7.45197 1.7782 8.43331C1.70008 9.38945 1.70009 10.5727 1.7001 12.052V17.948C1.70009 19.4273 1.70008 20.6106 1.7782 21.5667C1.85838 22.548 2.02679 23.3953 2.42381 24.1745C3.06041 25.4239 4.0762 26.4397 5.3256 27.0763C6.1048 27.4733 6.95206 27.6417 7.9334 27.7219C8.88954 27.8 10.0728 27.8 11.552 27.8H17.4482C18.9274 27.8 20.1107 27.8 21.0668 27.7219C22.0481 27.6417 22.8954 27.4733 23.6746 27.0763C23.937 26.9426 24.189 26.7922 24.4295 26.6264L26.8516 29.0485C27.3202 29.5172 28.08 29.5172 28.5486 29.0485C29.0173 28.5799 29.0173 27.8201 28.5486 27.3515L2.14863 0.951478ZM22.6871 24.8841L17.8089 20.0058C16.8603 20.6338 15.7219 21.0001 14.5001 21.0001C11.1864 21.0001 8.5001 18.3138 8.5001 15.0001C8.5001 13.778 8.86643 12.6397 9.49431 11.6913L4.61602 6.81298C4.59765 6.84674 4.57971 6.88077 4.56223 6.91509C4.36633 7.29956 4.23828 7.79582 4.17023 8.62874C4.10103 9.47567 4.1001 10.5609 4.1001 12.104V17.896C4.1001 19.4391 4.10103 20.5243 4.17023 21.3713C4.23828 22.2042 4.36633 22.7004 4.56223 23.0849C4.96873 23.8827 5.61737 24.5314 6.41518 24.9379C6.79966 25.1338 7.29591 25.2618 8.12883 25.3299C8.97577 25.3991 10.061 25.4 11.6041 25.4H17.3961C18.9392 25.4 20.0244 25.3991 20.8714 25.3299C21.7043 25.2618 22.2005 25.1338 22.585 24.9379C22.6193 24.9204 22.6534 24.9025 22.6871 24.8841ZM11.2507 13.4477C11.0258 13.9175 10.9001 14.4436 10.9001 15.0001C10.9001 16.9883 12.5119 18.6001 14.5001 18.6001C15.0567 18.6001 15.5827 18.4743 16.0525 18.2494L11.2507 13.4477Z" fill="url(#paint0_linear_18_92)"/>
<path d="M20.8714 4.67014C20.0244 4.60094 18.9392 4.60001 17.3961 4.60001H11.6041C10.8886 4.60001 10.2677 4.60003 9.71636 4.6075C9.05368 4.61648 8.50919 4.08655 8.50021 3.42387C8.49123 2.76119 9.02116 2.2167 9.68384 2.20772C10.2531 2.20001 10.8896 2.20001 11.598 2.20001L17.4481 2.20001C18.9274 2.2 20.1106 2.19999 21.0668 2.27811C22.0481 2.35829 22.8954 2.5267 23.6746 2.92372C24.924 3.56032 25.9398 4.57611 26.5764 5.82551C26.9734 6.60471 27.1418 7.45197 27.222 8.43331C27.3001 9.38945 27.3001 10.5727 27.3001 12.0519V17.9019C27.3001 18.6104 27.3001 19.2469 27.2924 19.8163C27.2834 20.4789 26.7389 21.0089 26.0762 20.9999C25.4135 20.9909 24.8836 20.4464 24.8926 19.7837C24.9001 19.2324 24.9001 18.6115 24.9001 17.896V12.104C24.9001 10.5609 24.8992 9.47567 24.83 8.62874C24.7619 7.79582 24.6339 7.29956 24.438 6.91509C24.0315 6.11728 23.3828 5.46864 22.585 5.06214C22.2005 4.86624 21.7043 4.73819 20.8714 4.67014Z" fill="url(#paint1_linear_18_92)"/>
<path d="M14.9687 10.0733C15.1895 9.44843 15.8751 9.12092 16.5 9.34178C18.2057 9.94465 19.5555 11.2945 20.1584 13.0002C20.3792 13.625 20.0517 14.3106 19.4269 14.5315C18.802 14.7523 18.1164 14.4248 17.8956 13.8C17.5343 12.7779 16.7222 11.9658 15.7002 11.6046C15.0753 11.3837 14.7478 10.6981 14.9687 10.0733Z" fill="url(#paint2_linear_18_92)"/>
<defs>
<linearGradient id="paint0_linear_18_92" x1="-0.756119" y1="32.0847" x2="30.736" y2="29.2209" gradientUnits="userSpaceOnUse">
<stop offset="0.015625" stop-color="#833AB4"/>
<stop offset="0.380208" stop-color="#C13584"/>
<stop offset="0.65625" stop-color="#E1306C"/>
<stop offset="1" stop-color="#E08F53"/>
</linearGradient>
<linearGradient id="paint1_linear_18_92" x1="-0.756119" y1="32.0847" x2="30.736" y2="29.2209" gradientUnits="userSpaceOnUse">
<stop offset="0.015625" stop-color="#833AB4"/>
<stop offset="0.380208" stop-color="#C13584"/>
<stop offset="0.65625" stop-color="#E1306C"/>
<stop offset="1" stop-color="#E08F53"/>
</linearGradient>
<linearGradient id="paint2_linear_18_92" x1="-0.756119" y1="32.0847" x2="30.736" y2="29.2209" gradientUnits="userSpaceOnUse">
<stop offset="0.015625" stop-color="#833AB4"/>
<stop offset="0.380208" stop-color="#C13584"/>
<stop offset="0.65625" stop-color="#E1306C"/>
<stop offset="1" stop-color="#E08F53"/>
</linearGradient>
</defs>
</svg>
