<svg width="24" height="14" viewBox="0 0 24 14" fill="none" xmlns="http://www.w3.org/2000/svg">
<path d="M23.7861 12.3671C23.7216 12.2591 23.3226 11.392 21.4024 9.60991C19.3923 7.74377 19.6623 8.04679 22.0835 4.82005C23.5581 2.8549 24.1476 1.65481 23.9631 1.14178C23.7876 0.65274 22.703 0.78175 22.703 0.78175L19.0968 0.802751C19.0968 0.802751 18.8297 0.766749 18.6302 0.885258C18.4367 1.00227 18.3122 1.27229 18.3122 1.27229C18.3122 1.27229 17.7407 2.7934 16.9786 4.0865C15.372 6.8152 14.7284 6.95921 14.4659 6.7897C13.8554 6.39517 14.0084 5.20258 14.0084 4.35652C14.0084 1.71182 14.4089 0.609237 13.2268 0.324216C12.8338 0.229709 12.5458 0.166704 11.5422 0.156203C10.2551 0.142702 9.16451 0.160704 8.54797 0.462226C8.13694 0.663241 7.82041 1.11177 8.01393 1.13728C8.25245 1.16878 8.79249 1.28279 9.07901 1.67282C9.44954 2.17535 9.43603 3.30644 9.43603 3.30644C9.43603 3.30644 9.64905 6.41917 8.9395 6.8062C8.45196 7.07172 7.78441 6.53018 6.35181 4.05349C5.61825 2.7859 5.06321 1.3833 5.06321 1.3833C5.06321 1.3833 4.9567 1.12228 4.76619 0.982765C4.53517 0.813253 4.21115 0.759249 4.21115 0.759249L0.781893 0.78025C0.781893 0.78025 0.267355 0.795251 0.0783407 1.01877C-0.0896718 1.21828 0.0648397 1.62931 0.0648397 1.62931C0.0648397 1.62931 2.75004 7.91028 5.78926 11.077C8.57797 13.9797 11.7432 13.7892 11.7432 13.7892H13.1773C13.1773 13.7892 13.6108 13.7412 13.8314 13.5027C14.0354 13.2837 14.0279 12.8726 14.0279 12.8726C14.0279 12.8726 13.9994 10.948 14.8934 10.6645C15.774 10.3855 16.9051 12.5246 18.1037 13.3482C19.0097 13.9707 19.6983 13.8342 19.6983 13.8342L22.904 13.7892C22.904 13.7892 24.5812 13.6857 23.7861 12.3671Z" fill="url(#paint0_linear_21_164)"/>
<defs>
<linearGradient id="paint0_linear_21_164" x1="-0.713515" y1="15.1234" x2="25.0915" y2="11.0107" gradientUnits="userSpaceOnUse">
<stop offset="0.015625" stop-color="#833AB4"/>
<stop offset="0.380208" stop-color="#C13584"/>
<stop offset="0.65625" stop-color="#E1306C"/>
<stop offset="1" stop-color="#E08F53"/>
</linearGradient>
</defs>
</svg>
